REM DIRINDEX 1
REM DIRNAME folder01
TITLE ""
FILE "Disk3Track26.mp3" MP3
  TRACK 01 AUDIO
    TITLE "1:cjc069_1208"
    INDEX 01 00:00:00
  TRACK 02 AUDIO
    TITLE "1:cjc069_1209"
    INDEX 01 00:03:61
  TRACK 03 AUDIO
    TITLE "1:cjc069_1210"
    INDEX 01 00:09:02
  TRACK 04 AUDIO
    TITLE "1:cjc069_1211"
    INDEX 01 00:19:13
  TRACK 05 AUDIO
    TITLE "1:cjc069_1212"
    INDEX 01 00:30:36
  TRACK 06 AUDIO
    TITLE "0:"
    INDEX 01 00:38:57
